# xmcd CD database file
#
# Track frame offsets:
#	150
#	17797
#	36878
#	47613
#	60197
#	75775
#	95450
#	104326
#	119978
#	131248
#	154463
#	172903
#	196937
#	221110
#
# Disc length: 3059 seconds
#
# Revision: 1
# Processed by: cddbd v1.5.2PL0 Copyright (c) Steve Scherf et al.
# Submitted via: CDex 1.51
#
DISCID=bc0bf10e
DTITLE=Rajna - Otherwise
DYEAR=2006
DGENRE=New Age
TTITLE0=Porcelain Sky
TTITLE1=Shall I Go
TTITLE2=Angel
TTITLE3=Just My Life
TTITLE4=Colours Of Love
TTITLE5=Prima Ballerina
TTITLE6=Abyss
TTITLE7=Radio Island
TTITLE8=Secret Place
TTITLE9=Lost Memories
TTITLE10=Black Humanity
TTITLE11=When I Was A Child...
TTITLE12=Antalya
TTITLE13=Porcelain Sky (Guitar Edit)
EXTD=YEAR: 2006
EXTT0=
EXTT1=
EXTT2=
EXTT3=
EXTT4=
EXTT5=
EXTT6=
EXTT7=
EXTT8=
EXTT9=
EXTT10=
EXTT11=
EXTT12=
EXTT13=
PLAYORDER=
